<svg width="800px" height="800px" viewBox="0 0 32 32" id="OBJECT" xmlns="http://www.w3.org/2000/svg"><defs><style>.cls-1{fill:#b2b2b2;}</style></defs><title/><path d="M16.71,4.21a6.78,6.78,0,0,0-5.75-1,1,1,0,0,0-.7.7,6.78,6.78,0,0,0,1.67,6.63,8,8,0,0,0,.7.61,1,1,0,0,0,.6.2,1.35,1.35,0,0,0,.28,0A8.87,8.87,0,0,1,16,11a1,1,0,0,0,1-1V6a3,3,0,0,1,.1-.73A1,1,0,0,0,16.71,4.21Z"/><path d="M16,11a1,1,0,0,1-1-1V6a5,5,0,0,1,5-5,1,1,0,0,1,0,2,3,3,0,0,0-3,3v4A1,1,0,0,1,16,11Z"/><circle class="cls-1" cx="16" cy="20" r="11"/></svg>